<svg width="82" height="105" viewBox="0 0 82 105" version="1.1" xmlns="http://www.w3.org/2000/svg"><title>happy</title><g stroke="none" stroke-width="1" fill="none" fill-rule="evenodd"><g><path d="M38.616 52.43L18.736 3.274C17.671.639 14.346-.192 12.17 1.632 1.714 10.399-1.998 25.126 3.254 38.113 8.506 51.1 21.417 59.118 35.034 58.168c2.834-.197 4.648-3.103 3.582-5.738z" fill="#78C800" fill-rule="nonzero"/><g transform="translate(.217 11.53)"><path d="M75.852 77.78L65.43 28.746c-.558-2.628-3.52-3.946-5.847-2.603-11.186 6.452-17.071 19.56-14.317 32.514 2.753 12.955 13.461 22.535 26.304 23.88 2.673.28 4.842-2.129 4.283-4.757h-.001z" fill="#78C800" fill-rule="nonzero"/><path d="M10.053 86.349a3.933 3.933 0 0 1 1.72-5.294l3.84-1.954a3.944 3.944 0 0 1 5.54 4.727 3.933 3.933 0 0 1-1.958 2.29l-3.84 1.953a3.944 3.944 0 0 1-5.302-1.722zm21.255-1.828a3.953 3.953 0 0 1 3.953-3.953h6.301a3.953 3.953 0 0 1 0 7.906h-6.3a3.953 3.953 0 0 1-3.954-3.953z" fill="#F49000" fill-rule="nonzero"/><path d="M7.75 84.505a3.937 3.937 0 0 1 3.937-3.937h.557a3.938 3.938 0 0 1 0 7.875h-.557a3.937 3.937 0 0 1-3.937-3.938z" fill="#F49000" fill-rule="nonzero"/><path d="M42.144 3.547c5.704 6.54 9.884 10.456 12.541 11.75 2.637 1.283 8.207 2.142 16.71 2.575a10.199 10.199 0 0 1 8.645 14.663L66.162 60.94c-7.39 15.125-25.633 21.407-40.768 14.038C10.285 67.621 4 49.41 11.357 34.302l.018-.038 13.92-28.49c2.472-5.061 8.58-7.16 13.64-4.686a10.199 10.199 0 0 1 3.21 2.46l-.001-.001z" fill="#78C800" fill-rule="nonzero"/><path d="M42.787 10.004l3.876 12.951a1.055 1.055 0 0 1-1.052 1.346c-3.449-.121-6.483-2.475-7.46-5.874-.979-3.4.343-6.999 3.203-8.923.595-.4 1.234-.19 1.433.5z" fill="#8EE000" fill-rule="nonzero"/><path d="M46.049 20.3c1.27 4.373 6.333 6.822 10.514 5.103L47.97 42.99c.017-.036-3.485-1.741-10.508-5.116 2.498-5.18 5.36-11.039 8.587-17.574zM37.7 10.08l3.704 12.875a1.055 1.055 0 0 1-1.052 1.346c-3.449-.122-6.484-2.478-7.462-5.88-.979-3.401.343-7.002 3.202-8.927a1.059 1.059 0 0 1 1.608.586z" fill="#8EE000" fill-rule="nonzero"/><g fill="#8EE000" fill-rule="nonzero"><path d="M66.17 21.449l-12.504 5.138a1.055 1.055 0 0 0-.383 1.665c2.264 2.603 6.003 3.48 9.26 2.1 3.257-1.379 5.222-4.671 4.918-8.105-.063-.714-.63-1.078-1.29-.798h-.001z"/><path d="M69.313 25.45l-12.336 5.224a1.055 1.055 0 0 0-.385 1.665c2.265 2.603 6.006 3.479 9.266 2.098 3.259-1.38 5.226-4.673 4.923-8.107a1.059 1.059 0 0 0-1.468-.88z"/></g><path d="M39.61 13.36l.059.027c6.019 2.931 8.523 10.187 5.592 16.206l-.008.015-2.98 6.099c-2.936 6.01-10.185 8.505-16.198 5.577l-.058-.028c-6.02-2.931-8.523-10.187-5.592-16.206l.007-.015 2.98-6.099c2.936-6.01 10.185-8.505 16.199-5.577l-.001.001zm26.401 12.582l.911.444c5.622 2.737 7.961 9.514 5.224 15.136l-.007.014-3.682 7.536c-2.742 5.613-9.513 7.944-15.13 5.21l-.853-.416c-5.597-2.725-7.944-9.458-5.254-15.072l3.624-7.564c2.702-5.64 9.464-8.02 15.103-5.319l.064.031z" fill="#8EE000" fill-rule="nonzero"/><path d="M37.287 17.018a8.352 8.352 0 0 1 3.848 11.176l-2.193 4.488a8.375 8.375 0 0 1-11.191 3.853 8.352 8.352 0 0 1-3.848-11.176l2.192-4.488a8.375 8.375 0 0 1 11.192-3.853zM64.06 30.142a8.352 8.352 0 0 1 3.848 11.176l-2.193 4.489a8.375 8.375 0 0 1-11.191 3.853 8.352 8.352 0 0 1-3.848-11.176l2.192-4.488a8.375 8.375 0 0 1 11.192-3.854z" fill="#FFF" fill-rule="nonzero"/><path d="M36.292 22.003a3.938 3.938 0 0 1 1.814 5.269l-1.883 3.853a3.948 3.948 0 0 1-5.276 1.816 3.938 3.938 0 0 1-1.814-5.268l1.883-3.854a3.948 3.948 0 0 1 5.276-1.816zm24.382 11.693a3.938 3.938 0 0 1 1.814 5.268l-1.882 3.853a3.948 3.948 0 0 1-5.276 1.817 3.938 3.938 0 0 1-1.814-5.269l1.882-3.853a3.948 3.948 0 0 1 5.276-1.816z" fill="#4B4B4B" fill-rule="nonzero"/><path d="M64.255 51.457l4.14-8.418c-7.76-1.493-14.226-1.009-21.53 1.389l3.242 7.961c4.707-2.055 9.347-2.357 14.148-.932zM20.55 31.539l3.035-8.876c6.545 4.423 10.775 9.33 14.24 16.18l-7.931 3.341c-1.873-4.776-4.94-8.264-9.344-10.645z" fill="#8EE000" fill-rule="nonzero"/><path d="M44.61 36.712l.023.011a4.289 4.289 0 0 1 1.978 5.739l-2.533 5.19a4.289 4.289 0 0 1-5.73 1.975l-.023-.01a4.289 4.289 0 0 1-1.978-5.739l2.533-5.19a4.289 4.289 0 0 1 5.73-1.976z" fill="#F49000" fill-rule="nonzero"/><path d="M44.118 37.528a2.997 2.997 0 0 1 1.44 4.018l-2.27 4.717a3.081 3.081 0 0 1-4.074 1.459 2.997 2.997 0 0 1-1.439-4.018l2.27-4.717a3.081 3.081 0 0 1 4.073-1.459z" fill="#BE7000" fill-rule="nonzero"/><path d="M37.323 37.992c1.648-2.23 4.834-3.034 7.651-1.662 2.511 1.222 3.838 4.223 3.092 6.893l-.152.31-5.818-1.701-4.925-3.529.152-.31v-.001z" fill="#FFC200" fill-rule="nonzero"/><path d="M42.462 37.673a3.738 3.738 0 0 1 2.364 1.15" stroke="#FFDE00" stroke-width="1.7" stroke-linecap="round" stroke-linejoin="round"/><path d="M26.208 51.327l6.867 3.34c.368.179.46.652.18.935-1.34 1.358-3.477 1.707-5.29.824-1.815-.882-2.855-2.776-2.607-4.666.052-.393.482-.612.85-.433z" fill="#8EE000" fill-rule="nonzero"/><ellipse fill="#FFF" fill-rule="nonzero" transform="rotate(26 56.097 34.127)" cx="56.097" cy="34.127" rx="2.509" ry="2.506"/><path d="M38.16 57.292l6.867 3.34c.368.18.46.653.18.936-1.34 1.358-3.477 1.707-5.29.824-1.815-.882-2.855-2.776-2.607-4.666.052-.393.482-.613.85-.434zm-8.844 2.864l6.866 3.34c.368.179.46.653.18.935-1.34 1.358-3.476 1.707-5.29.825-1.814-.883-2.855-2.777-2.606-4.666.051-.393.482-.613.85-.434z" fill="#8EE000" fill-rule="nonzero"/><ellipse fill="#FFF" fill-rule="nonzero" transform="rotate(26 32.193 22.434)" cx="32.193" cy="22.434" rx="2.509" ry="2.506"/><path d="M2.844 88.397H56.1a2.38 2.38 0 0 1 2.38 2.38v.24a2.38 2.38 0 0 1-2.38 2.38H2.844a2.38 2.38 0 0 1-2.38-2.38v-.24a2.38 2.38 0 0 1 2.38-2.38z" fill="#E2E2E2" fill-rule="nonzero"/></g></g></g></svg>